PathFileType	4	(x/y/z)	S06_SL_Cal_T01
DataRate	CameraRate	NumFrames	NumMarkers	Units	OrigDataRate	OrigDataStartFrame	OrigNumFrames
240	240	8	51	mm	240	300	2399
Frame#	Time	Sternum			R.Acromium			L.Acromium			Top.Head			R.ASIS			L.ASIS			R.PSIS			L.PSIS			R.Great.Tro			L.Great.Tro			R.Iliac.Crest			L.Iliac.Crest			V.Sacral			R.Thigh.Upper.Post			R.Thigh.Lower.Ant			R.Thigh.Lower.Post			R.Thigh.Upper.Ant			R.Knee.Lat			R.Knee.Med			R.Shank.Upper.Post			R.Shank.Lower.Ant			R.Shank.Lower.Post			R.Shank.Upper.Ant			R.Ankle.Lat			R.Ankle.Med			R.Heel.Upper			R.Heel.Med			R.Heel.Lat			R.Toe.Lat			R.Toe.Med			R.Toe.Tip			L.Thigh.Upper.Post			L.Thigh.Lower.Ant			L.Thigh.Lower.Post			L.Thigh.Upper.Ant			L.Knee.Lat			L.Knee.Med			L.Shank.Upper.Post			L.Shank.Lower.Ant			L.Shank.Lower.Post			L.Shank.Upper.Ant			L.Ankle.Lat			L.Ankle.Med			L.Heel.Upper			L.Heel.Med			L.Heel.Lat			L.Toe.Lat			L.Toe.Med			L.Toe.Tip			Cervical.Spine			Back			
		X1	Y1	Z1	X2	Y2	Z2	X3	Y3	Z3	X4	Y4	Z4	X5	Y5	Z5	X6	Y6	Z6	X7	Y7	Z7	X8	Y8	Z8	X9	Y9	Z9	X10	Y10	Z10	X11	Y11	Z11	X12	Y12	Z12	X13	Y13	Z13	X14	Y14	Z14	X15	Y15	Z15	X16	Y16	Z16	X17	Y17	Z17	X18	Y18	Z18	X19	Y19	Z19	X20	Y20	Z20	X21	Y21	Z21	X22	Y22	Z22	X23	Y23	Z23	X24	Y24	Z24	X25	Y25	Z25	X26	Y26	Z26	X27	Y27	Z27	X28	Y28	Z28	X29	Y29	Z29	X30	Y30	Z30	X31	Y31	Z31	X32	Y32	Z32	X33	Y33	Z33	X34	Y34	Z34	X35	Y35	Z35	X36	Y36	Z36	X37	Y37	Z37	X38	Y38	Z38	X39	Y39	Z39	X40	Y40	Z40	X41	Y41	Z41	X42	Y42	Z42	X43	Y43	Z43	X44	Y44	Z44	X45	Y45	Z45	X46	Y46	Z46	X47	Y47	Z47	X48	Y48	Z48	X49	Y49	Z49	X50	Y50	Z50	X51	Y51	Z51	

300	1.2458	766.84	1312.6	316.18	625.17	1543.1	465.09	637.06	1535.6	145.95	688.13	1827.9	308.07	731.21	1065.1	442.1	739.67	1058.1	189.06	534.38	1086.1	342.56	536.19	1089.2	262.38	667.47	1001.2	490.59	641.25	995.31	135.15	645.52	1142.7	469.86	671.25	1134.4	150.87	520.97	1052.9	305.18	643.97	753.25	497.1	692.78	667.13	470.34	624.78	667.02	482.03	716.19	754.8	481.84	634.3	551.67	476.56	640.57	543.89	350.06	569.97	328.91	494.75	626.46	260.42	480.25	561.93	251.75	485.68	635.36	336.23	488.98	587.98	112.45	471.87	606.08	112.38	385.21	522.54	74.594	428.59	531.37	43.995	397.72	529.24	43.547	463.25	704.64	36.256	507.05	734.67	44.153	387.43	799.99	53.716	436.42	670.82	733.15	130.57	716.46	644.51	178	645.76	646.38	142.81	735.83	737.21	163.17	622.22	551.31	152.07	657.17	542.79	269.95	560.63	327.55	142.85	621.49	262.95	134.09	553.71	254.77	153.91	625.25	334.46	129.43	589.79	111.71	136.83	606.83	109.02	225.58	518.9	73.131	179.49	525.53	46.267	211.8	522.4	47.563	149.76	697.46	45.764	98.889	727.7	43.318	216.33	795.36	55.086	157.48	582.77	1560.4	307.21	532.23	1292.8	308.91
301	1.25	766.84	1312.6	316.17	625.16	1543.1	465.08	637.02	1535.6	145.94	688.14	1827.9	308.07	731.22	1065.1	442.1	739.67	1058.1	189.05	534.38	1086.1	342.57	536.2	1089.2	262.39	667.48	1001.2	490.59	641.24	995.3	135.15	645.53	1142.7	469.86	671.24	1134.4	150.87	520.97	1052.9	305.19	643.98	753.25	497.1	692.79	667.13	470.34	624.79	667.02	482.03	716.2	754.8	481.83	634.3	551.67	476.56	640.57	543.89	350.06	569.97	328.91	494.75	626.46	260.42	480.25	561.94	251.75	485.68	635.36	336.24	488.98	587.98	112.45	471.87	606.08	112.38	385.21	522.54	74.595	428.59	531.37	43.996	397.72	529.24	43.547	463.25	704.64	36.258	507.05	734.67	44.154	387.43	799.99	53.717	436.42	670.82	733.15	130.57	716.45	644.51	178	645.76	646.39	142.81	735.83	737.21	163.17	622.22	551.31	152.07	657.16	542.79	269.95	560.62	327.55	142.86	621.49	262.95	134.09	553.7	254.77	153.91	625.25	334.46	129.43	589.79	111.71	136.83	606.83	109.02	225.58	518.9	73.131	179.49	525.53	46.268	211.8	522.4	47.563	149.76	697.46	45.764	98.889	727.7	43.319	216.33	795.36	55.087	157.48	582.76	1560.4	307.2	532.24	1292.8	308.91
302	1.2542	766.85	1312.6	316.16	625.15	1543.1	465.08	636.96	1535.6	145.94	688.14	1827.9	308.07	731.23	1065.1	442.1	739.67	1058.1	189.05	534.38	1086.2	342.58	536.2	1089.2	262.4	667.5	1001.2	490.59	641.23	995.3	135.15	645.55	1142.7	469.86	671.23	1134.4	150.87	520.98	1052.9	305.2	644	753.25	497.1	692.8	667.13	470.33	624.79	667.02	482.03	716.21	754.8	481.83	634.31	551.67	476.55	640.57	543.89	350.06	569.97	328.91	494.76	626.46	260.42	480.25	561.94	251.74	485.69	635.36	336.24	488.99	587.98	112.45	471.86	606.08	112.39	385.21	522.54	74.596	428.59	531.38	43.997	397.72	529.24	43.547	463.25	704.64	36.259	507.05	734.67	44.155	387.43	799.99	53.717	436.42	670.81	733.15	130.56	716.45	644.51	178	645.75	646.38	142.81	735.83	737.21	163.16	622.22	551.31	152.07	657.15	542.79	269.95	560.62	327.54	142.87	621.48	262.95	134.09	553.7	254.77	153.91	625.25	334.46	129.43	589.79	111.71	136.83	606.83	109.02	225.58	518.9	73.131	179.49	525.53	46.269	211.8	522.4	47.563	149.76	697.46	45.764	98.888	727.7	43.32	216.33	795.36	55.087	157.47	582.75	1560.4	307.19	532.24	1292.8	308.91
303	1.2583	766.85	1312.6	316.16	625.14	1543.1	465.07	636.9	1535.6	145.94	688.14	1827.9	308.07	731.24	1065.1	442.09	739.67	1058.1	189.04	534.39	1086.2	342.58	536.2	1089.2	262.41	667.51	1001.2	490.59	641.22	995.3	135.15	645.56	1142.6	469.86	671.22	1134.4	150.87	520.98	1052.9	305.21	644.01	753.25	497.1	692.81	667.12	470.33	624.8	667.01	482.04	716.22	754.79	481.83	634.31	551.67	476.55	640.57	543.89	350.06	569.98	328.92	494.76	626.46	260.42	480.25	561.94	251.74	485.69	635.37	336.24	488.99	587.98	112.45	471.86	606.08	112.39	385.21	522.54	74.597	428.59	531.38	43.997	397.72	529.24	43.547	463.25	704.64	36.26	507.05	734.67	44.156	387.43	799.99	53.718	436.42	670.81	733.15	130.56	716.44	644.51	177.99	645.75	646.38	142.8	735.82	737.21	163.16	622.21	551.31	152.07	657.14	542.79	269.95	560.62	327.54	142.88	621.48	262.95	134.09	553.7	254.77	153.91	625.24	334.46	129.43	589.79	111.71	136.84	606.83	109.02	225.57	518.9	73.132	179.49	525.53	46.27	211.8	522.4	47.563	149.76	697.46	45.764	98.887	727.71	43.321	216.32	795.36	55.088	157.47	582.73	1560.4	307.18	532.24	1292.8	308.91
304	1.2625	766.86	1312.6	316.15	625.12	1543.1	465.07	636.83	1535.5	145.94	688.15	1827.9	308.06	731.25	1065.1	442.09	739.67	1058.1	189.03	534.39	1086.2	342.59	536.21	1089.2	262.42	667.52	1001.2	490.59	641.21	995.3	135.15	645.57	1142.6	469.86	671.21	1134.4	150.86	520.98	1052.9	305.22	644.02	753.25	497.1	692.82	667.12	470.32	624.81	667.01	482.04	716.23	754.79	481.82	634.32	551.66	476.55	640.57	543.89	350.06	569.98	328.92	494.76	626.46	260.42	480.25	561.95	251.74	485.69	635.37	336.24	488.99	587.98	112.45	471.86	606.08	112.39	385.21	522.53	74.598	428.59	531.38	43.996	397.72	529.24	43.547	463.25	704.64	36.261	507.05	734.67	44.157	387.42	799.99	53.719	436.42	670.81	733.15	130.56	716.44	644.5	177.99	645.74	646.38	142.8	735.82	737.21	163.16	622.21	551.31	152.07	657.12	542.79	269.95	560.61	327.53	142.89	621.48	262.95	134.09	553.7	254.77	153.91	625.24	334.46	129.43	589.79	111.71	136.84	606.83	109.02	225.57	518.9	73.132	179.49	525.53	46.271	211.8	522.4	47.563	149.76	697.46	45.764	98.887	727.71	43.322	216.32	795.36	55.088	157.47	582.72	1560.4	307.17	532.24	1292.8	308.91
305	1.2667	766.86	1312.6	316.15	625.1	1543.1	465.07	636.75	1535.5	145.94	688.15	1827.9	308.06	731.26	1065.1	442.09	739.66	1058.1	189.03	534.39	1086.2	342.59	536.21	1089.2	262.42	667.53	1001.2	490.59	641.21	995.3	135.15	645.58	1142.6	469.87	671.21	1134.4	150.86	520.99	1052.9	305.23	644.03	753.25	497.1	692.83	667.12	470.32	624.82	667.01	482.04	716.24	754.79	481.82	634.32	551.66	476.55	640.56	543.89	350.06	569.98	328.91	494.76	626.46	260.42	480.25	561.95	251.74	485.69	635.37	336.24	488.99	587.98	112.45	471.86	606.08	112.39	385.21	522.53	74.599	428.59	531.38	43.995	397.72	529.24	43.548	463.25	704.64	36.262	507.05	734.67	44.157	387.42	799.99	53.72	436.42	670.81	733.15	130.55	716.43	644.5	177.99	645.74	646.38	142.8	735.82	737.22	163.16	622.21	551.31	152.07	657.11	542.79	269.95	560.61	327.53	142.9	621.48	262.95	134.09	553.69	254.77	153.91	625.24	334.45	129.43	589.79	111.71	136.84	606.83	109.02	225.57	518.9	73.131	179.49	525.53	46.272	211.8	522.4	47.563	149.76	697.46	45.765	98.887	727.71	43.323	216.32	795.36	55.088	157.47	582.7	1560.4	307.16	532.25	1292.8	308.92
306	1.2708	766.86	1312.6	316.14	625.09	1543.1	465.07	636.65	1535.5	145.95	688.15	1827.9	308.05	731.27	1065.1	442.08	739.66	1058.1	189.02	534.4	1086.2	342.6	536.21	1089.2	262.43	667.54	1001.2	490.59	641.2	995.3	135.16	645.59	1142.6	469.87	671.2	1134.4	150.86	520.99	1052.9	305.24	644.04	753.25	497.1	692.83	667.12	470.32	624.83	667.01	482.04	716.25	754.79	481.81	634.33	551.66	476.55	640.56	543.89	350.06	569.98	328.91	494.76	626.46	260.42	480.25	561.95	251.74	485.69	635.37	336.24	488.99	587.98	112.45	471.86	606.08	112.39	385.21	522.53	74.599	428.59	531.38	43.994	397.72	529.23	43.548	463.25	704.64	36.263	507.05	734.67	44.158	387.42	799.99	53.72	436.41	670.81	733.14	130.55	716.43	644.5	177.99	645.73	646.38	142.79	735.82	737.22	163.15	622.2	551.31	152.07	657.1	542.8	269.95	560.6	327.52	142.91	621.47	262.95	134.09	553.69	254.77	153.91	625.23	334.45	129.43	589.79	111.71	136.84	606.83	109.02	225.57	518.9	73.131	179.49	525.53	46.272	211.8	522.4	47.563	149.76	697.46	45.765	98.886	727.71	43.324	216.32	795.36	55.089	157.47	582.69	1560.4	307.14	532.25	1292.8	308.92
307	1.275	766.86	1312.6	316.14	625.07	1543.1	465.06	636.56	1535.5	145.96	688.15	1827.9	308.04	731.27	1065.1	442.08	739.66	1058.1	189.02	534.4	1086.2	342.6	536.21	1089.2	262.44	667.55	1001.2	490.59	641.2	995.3	135.16	645.6	1142.6	469.87	671.19	1134.4	150.86	520.99	1052.9	305.24	644.05	753.24	497.1	692.84	667.12	470.31	624.83	667.01	482.04	716.26	754.78	481.81	634.33	551.66	476.55	640.56	543.89	350.06	569.98	328.91	494.75	626.46	260.42	480.25	561.95	251.73	485.69	635.37	336.23	488.98	587.98	112.45	471.86	606.08	112.39	385.21	522.53	74.6	428.59	531.38	43.991	397.72	529.23	43.548	463.25	704.64	36.264	507.05	734.67	44.159	387.42	799.99	53.721	436.41	670.8	733.14	130.55	716.42	644.5	177.99	645.73	646.38	142.79	735.81	737.22	163.15	622.2	551.3	152.07	657.09	542.8	269.96	560.6	327.51	142.92	621.47	262.95	134.09	553.69	254.77	153.91	625.23	334.45	129.43	589.79	111.71	136.84	606.83	109.02	225.57	518.9	73.131	179.49	525.54	46.272	211.8	522.4	47.563	149.76	697.46	45.765	98.886	727.71	43.325	216.32	795.36	55.089	157.47	582.67	1560.4	307.13	532.25	1292.8	308.92
